<?xml version="1.0" encoding="UTF-8"?>
<!DOCTYPE svg PUBLIC "-//W3C//DTD SVG 1.1//EN" "http://www.w3.org/Graphics/SVG/1.1/DTD/svg11.dtd">
<svg version="1.1" xmlns="http://www.w3.org/2000/svg" xmlns:xlink="http://www.w3.org/1999/xlink" x="0px" y="0px" width="600" height="600" viewBox="0, 0, 600, 600">
  <g id="Layer 1">
    <g>
      <g>
        <path d="M504.656,489.533 C548.609,441.943 582.941,376.476 578.921,285.122 C575.191,200.427 535.269,138.162 489.792,95.552 C443.722,52.37 374.128,16.05 284.553,21.334 C264.189,22.542 242.862,25.978 223.775,31.452 C167.781,47.535 127.333,75.708 94.156,111.064 C50.896,157.156 16.531,224.591 20.564,316.159 C22.457,359.05 35.025,394.643 50.269,425.444 C65.917,457.063 85.833,482.561 110.363,505.058 C156.389,547.276 226.453,583.518 314.93,578.593 C399.567,573.869 460.568,537.269 504.656,489.533 M598.488,284.45 C603.718,381.849 566.62,452.821 519.509,503.031 C472.408,553.207 406.724,594.856 316.286,598.83 C221.02,603.016 147.148,567.411 96.183,519.899 C47.368,474.39 4.535,406.237 0.312,316.83 C-4.315,219.152 33.041,147.184 79.302,96.895 C124.477,47.793 193.925,6.212 283.87,0.425 C332.774,-2.719 376.581,8.418 412.156,22.687 C448.862,37.407 477.808,57.385 503.302,80.698 C554.3,127.349 593.582,192.67 598.488,284.45" stroke="#000000" stroke-width="1" stroke-opacity="0" fill="#EE3339"/>
      </g>
      <g>
        <path d="M445.917,316.159 M445.917,328.975 M404.047,328.975 M404.047,335.724 C413.781,338.825 429.228,336.205 441.19,337.067 L441.19,349.211 L404.047,349.211 L404.047,356.632 C408.562,358.199 415.977,356.867 421.61,357.303 L421.61,369.447 L312.903,369.447 C276.174,369.447 238.236,371.887 204.207,369.447 C167.758,366.839 145.837,345.574 148.839,306.029 C150.777,280.51 165.215,264.393 183.955,254.085 C184.74,254.196 185.154,253.939 185.299,253.413 C183.485,264.56 182.343,281.171 194.08,285.121 C203.076,288.155 220.459,285.794 233.912,285.794 L354.089,285.794 C361.012,267.527 396.263,277.566 418.91,275.004 L418.91,287.147 L404.73,287.147 C403.431,288.771 404.304,292.565 404.047,295.24 C412.604,296.807 424.086,295.464 433.764,295.912 L433.764,308.055 L404.047,308.055 L404.047,315.475 C416.659,317.054 432.184,315.7 445.917,316.159" stroke="#000000" stroke-width="1" stroke-opacity="0" fill="#EE3339"/>
      </g>
      <g>
        <path d="M410.129,386.314 C441.772,394.182 460.556,456.683 432.408,484.809 C410.186,507.016 356.139,501.677 310.876,501.677 L173.146,501.677 L173.146,488.862 L190.698,488.862 L190.698,482.112 C180.751,479.012 165.081,481.631 152.894,480.769 L152.894,468.626 L190.698,468.626 L190.698,461.877 C179.407,458.764 162.371,461.394 148.84,460.521 L148.84,448.389 L190.698,448.389 L190.698,440.969 C182.152,439.39 170.671,440.733 160.992,440.284 L160.992,427.471 L190.698,427.471 L190.698,420.049 C187.092,418.482 180.584,419.814 175.834,419.378 L175.834,407.234 C197.822,410.232 234.013,399.041 239.994,418.025 L317.63,418.025 C345.141,418.025 374.376,420.676 395.276,418.025 C408.505,416.356 413.534,402.991 409.458,387.669 C408.662,387.557 408.875,386.437 408.774,385.643 C409.558,385.531 409.984,385.788 410.129,386.314" stroke="#000000" stroke-width="1" stroke-opacity="0" fill="#EE3339"/>
      </g>
      <g>
        <path d="M332.483,96.223 C374.846,91.847 404.428,123.344 402.691,160.984 C400.653,205.778 350.818,236.87 306.16,210.232 C314.718,197.193 324.351,179.619 324.384,158.286 C324.407,137.491 315.961,118.788 305.476,107.014 C313.318,101.64 321.74,97.331 332.483,96.223" stroke="#000000" stroke-width="1" stroke-opacity="0" fill="#EE3339"/>
      </g>
      <g>
        <path d="M306.833,150.195 C311.312,193.555 277.63,225.588 235.939,221.704 C212.978,219.567 195.391,204.658 186.654,188.652 C163.624,146.534 194.216,99.155 237.968,94.869 C274.36,91.309 303.494,117.937 306.833,150.195" stroke="#000000" stroke-width="1" stroke-opacity="0" fill="#EE3339"/>
      </g>
    </g>
  </g>
  <defs/>
</svg>
