<?xml version="1.0" encoding="UTF-8"?>
<!DOCTYPE svg PUBLIC "-//W3C//DTD SVG 1.1//EN" "http://www.w3.org/Graphics/SVG/1.1/DTD/svg11.dtd">
<svg version="1.1" xmlns="http://www.w3.org/2000/svg" xmlns:xlink="http://www.w3.org/1999/xlink" x="0px" y="0px" width="300" height="301" viewBox="0, 0, 300, 301">
  <g id="Layer 2">
    <path d="M182.085,295.18 C198.471,284.41 205.988,265.32 205.988,246.347 C204.085,216.574 181.361,195.454 152.313,192.672 L146.898,192.672 C115.043,194.73 93.223,220.566 93.223,251.763 C94.42,268.454 102.381,285.441 116.69,294.892 C28.252,277.275 -22.833,176.816 10.135,94.413 C37.453,26.131 112.166,-13.763 183.782,2.935 C254.602,19.448 306.693,88.297 299.149,161.443 C292.39,226.966 247.822,279.468 183.277,294.916 z M146.388,154.619 L151.804,154.619 C182.871,152.02 206.752,127.376 205.478,95.529 C205.229,89.292 203.536,82.809 201.258,77.028 C192.971,55.995 173.621,44.355 151.804,41.854 L146.388,41.854 C115.138,44.487 91.644,69.037 92.713,100.944 C93.651,128.938 114.846,148.56 140.992,154.102 z" stroke="#000000" stroke-width="1" stroke-opacity="0" fill="#F4C03E"/>
  </g>
  <defs/>
</svg>
